<?xml version="1.0" encoding="UTF-8"?> <svg xmlns="http://www.w3.org/2000/svg" width="331" height="104" viewBox="0 0 331 104" fill="none"><path fill-rule="evenodd" clip-rule="evenodd" d="M52 104C80.7188 104 104 80.7188 104 52C104 23.2812 80.7188 0 52 0C23.2812 0 0 23.2812 0 52C0 80.7188 23.2812 104 52 104ZM52 71.5C47.5127 71.5 43.875 67.8623 43.875 63.375C43.875 62.0288 42.7837 60.9375 41.4375 60.9375H37.375V63.375C37.375 71.4522 43.9228 78 52 78C60.0772 78 66.625 71.4522 66.625 63.375V60.9375H62.5625C61.2163 60.9375 60.125 62.0288 60.125 63.375C60.125 67.8623 56.4873 71.5 52 71.5ZM10.5625 43.0625C10.5625 41.7163 11.6538 40.625 13 40.625H17.875V63.375H13C11.6538 63.375 10.5625 62.2837 10.5625 60.9375V43.0625ZM31.2 40.625H23.075L24.5116 43.0877C25.3832 44.582 25.3977 46.4263 24.5496 47.9341L23.6069 49.61C22.7721 51.094 22.7721 52.906 23.6069 54.39L24.5496 56.0659C25.3977 57.5737 25.3832 59.418 24.5116 60.9123L23.075 63.375H31.2L32.6366 60.9123C33.5082 59.418 33.5227 57.5737 32.6746 56.0659L31.0597 53.195C30.6423 52.453 30.6423 51.547 31.0597 50.805L32.6746 47.9341C33.5227 46.4263 33.5082 44.582 32.6366 43.0877L31.2 40.625ZM73.125 40.625C71.7788 40.625 70.6875 41.7163 70.6875 43.0625V60.9375C70.6875 62.2837 71.7788 63.375 73.125 63.375H78V40.625H73.125ZM95.0625 40.625H86.9375L81.8196 49.5813C80.9632 51.0801 80.9632 52.9199 81.8196 54.4187L86.9375 63.375H95.0625L89.2535 53.2093C88.8253 52.46 88.8253 51.54 89.2536 50.7907L95.0625 40.625Z" fill="black"></path><path d="M139.721 33.1672C142.027 33.9829 143.179 35.8627 143.179 38.8064V44.9776C143.179 49.6592 140.981 52 136.583 52H122.91V17.5796H136.157C140.555 17.5796 142.754 19.9204 142.754 24.602V27.7408C142.754 30.5781 141.743 32.3869 139.721 33.1672ZM134.295 22.6336H130.358V31.8372H134.295C134.579 31.8372 134.809 31.7308 134.987 31.518C135.199 31.3052 135.306 31.0569 135.306 30.7732V23.6976C135.306 23.4139 135.199 23.1656 134.987 22.9528C134.809 22.74 134.579 22.6336 134.295 22.6336ZM135.731 45.8288V38.1148C135.731 37.8311 135.625 37.5828 135.412 37.37C135.235 37.1572 135.004 37.0508 134.721 37.0508H130.358V46.8928H134.721C135.004 46.8928 135.235 46.7864 135.412 46.5736C135.625 46.3608 135.731 46.1125 135.731 45.8288ZM157.839 37.902V52H150.391V17.5796H163.638C168.036 17.5796 170.235 19.9204 170.235 24.602V28.592C170.235 31.4293 169.224 33.2381 167.203 34.0184C168.976 34.6568 169.863 36.1109 169.863 38.3808V52H162.415V38.966C162.415 38.2567 162.078 37.902 161.404 37.902H157.839ZM157.839 22.6336V32.6884H161.776C162.06 32.6884 162.29 32.582 162.468 32.3692C162.681 32.1564 162.787 31.9081 162.787 31.6244V23.6976C162.787 23.4139 162.681 23.1656 162.468 22.9528C162.29 22.74 162.06 22.6336 161.776 22.6336H157.839ZM189.434 17.5796H196.882V45.5096C196.882 50.1912 194.683 52.532 190.286 52.532H183.689C179.291 52.532 177.092 50.1912 177.092 45.5096V17.5796H184.54V46.148C184.54 46.4317 184.629 46.68 184.806 46.8928C185.019 47.1056 185.267 47.212 185.551 47.212H188.424C188.707 47.212 188.938 47.1056 189.115 46.8928C189.328 46.68 189.434 46.4317 189.434 46.148V17.5796ZM223.844 52H216.396V23.4316C216.396 23.1479 216.29 22.8996 216.077 22.6868C215.899 22.474 215.669 22.3676 215.385 22.3676H212.512C212.229 22.3676 211.98 22.474 211.768 22.6868C211.59 22.8996 211.502 23.1479 211.502 23.4316V52H204.054V24.07C204.054 19.3884 206.252 17.0476 210.65 17.0476H217.247C221.645 17.0476 223.844 19.3884 223.844 24.07V52ZM250.063 26.6236H242.988V23.9104C242.988 23.6267 242.881 23.3784 242.668 23.1656C242.491 22.9528 242.261 22.8464 241.977 22.8464H239.051C238.767 22.8464 238.519 22.9528 238.306 23.1656C238.129 23.3784 238.04 23.6267 238.04 23.9104V30.0284C238.04 30.3121 238.129 30.5604 238.306 30.7732C238.519 30.986 238.767 31.0924 239.051 31.0924H243.839C248.237 31.1633 250.436 33.5041 250.436 38.1148V45.5096C250.436 50.1912 248.237 52.532 243.839 52.532H237.561C233.163 52.532 230.964 50.1912 230.964 45.5096V41.9452H238.04V45.7756C238.04 46.0593 238.129 46.3076 238.306 46.5204C238.519 46.7332 238.767 46.8396 239.051 46.8396H242.349C242.633 46.8396 242.863 46.7332 243.041 46.5204C243.254 46.3076 243.36 46.0593 243.36 45.7756V39.0192C243.36 38.7355 243.254 38.4872 243.041 38.2744C242.863 38.0616 242.633 37.9552 242.349 37.9552H237.561C233.163 37.9552 230.964 35.6144 230.964 30.9328V24.07C230.964 19.3884 233.163 17.0476 237.561 17.0476H243.466C247.864 17.0476 250.063 19.3884 250.063 24.07V26.6236ZM255.49 23.9104V17.5796H274.11V23.9104H268.524V52H261.076V23.9104H255.49ZM293.313 17.0476C297.711 17.0476 299.91 19.3884 299.91 24.07V52H292.462V40.4556H287.088V52H279.64V24.07C279.64 19.3884 281.839 17.0476 286.237 17.0476H293.313ZM287.088 34.71H292.462V23.1656C292.462 22.8819 292.355 22.6336 292.142 22.4208C291.965 22.208 291.734 22.1016 291.451 22.1016H288.099C287.815 22.1016 287.567 22.208 287.354 22.4208C287.177 22.6336 287.088 22.8819 287.088 23.1656V34.71ZM321.261 17.5796C325.659 17.5796 327.858 19.9204 327.858 24.602V44.9776C327.858 49.6592 325.659 52 321.261 52H307.589V17.5796H321.261ZM320.41 45.8288V23.6976C320.41 23.4139 320.304 23.1656 320.091 22.9528C319.914 22.74 319.683 22.6336 319.399 22.6336H315.037V46.8928H319.399C319.683 46.8928 319.914 46.7864 320.091 46.5736C320.304 46.3608 320.41 46.1125 320.41 45.8288ZM130.769 64.2608H135.473V81.9008C135.473 84.8576 134.084 86.336 131.307 86.336H127.14C124.363 86.336 122.974 84.8576 122.974 81.9008V64.2608H127.678V82.304C127.678 82.4832 127.734 82.64 127.846 82.7744C127.98 82.9088 128.137 82.976 128.316 82.976H130.131C130.31 82.976 130.456 82.9088 130.568 82.7744C130.702 82.64 130.769 82.4832 130.769 82.304V64.2608ZM152.502 86H147.798V67.9568C147.798 67.7776 147.73 67.6208 147.596 67.4864C147.484 67.352 147.338 67.2848 147.159 67.2848H145.345C145.166 67.2848 145.009 67.352 144.874 67.4864C144.762 67.6208 144.706 67.7776 144.706 67.9568V86H140.002V68.36C140.002 65.4032 141.391 63.9248 144.169 63.9248H148.335C151.113 63.9248 152.502 65.4032 152.502 68.36V86ZM163.349 77.3648V73.904H169.565V81.9008C169.565 84.8576 168.176 86.336 165.399 86.336H161.165C158.387 86.336 156.999 84.8576 156.999 81.9008V68.36C156.999 65.4032 158.387 63.9248 161.165 63.9248H165.399C168.176 63.9248 169.565 65.4032 169.565 68.36V70.4096H165.096V67.7888C165.096 67.6096 165.029 67.4528 164.895 67.3184C164.783 67.184 164.637 67.1168 164.458 67.1168H162.341C162.162 67.1168 162.005 67.184 161.871 67.3184C161.759 67.4528 161.703 67.6096 161.703 67.7888V82.4384C161.703 82.6176 161.759 82.7744 161.871 82.9088C162.005 83.0432 162.162 83.1104 162.341 83.1104H164.458C164.637 83.1104 164.783 83.0432 164.895 82.9088C165.029 82.7744 165.096 82.6176 165.096 82.4384V77.3648H163.349ZM182.137 64.2608C184.915 64.2608 186.304 65.7392 186.304 68.696V81.5648C186.304 84.5216 184.915 86 182.137 86H173.502V64.2608H182.137ZM181.6 82.1024V68.1248C181.6 67.9456 181.532 67.7888 181.398 67.6544C181.286 67.52 181.14 67.4528 180.961 67.4528H178.206V82.7744H180.961C181.14 82.7744 181.286 82.7072 181.398 82.5728C181.532 82.4384 181.6 82.2816 181.6 82.1024ZM203.955 68.36V81.9008C203.955 84.8576 202.567 86.336 199.789 86.336H195.32C192.543 86.336 191.154 84.8576 191.154 81.9008V68.36C191.154 65.4032 192.543 63.9248 195.32 63.9248H199.789C202.567 63.9248 203.955 65.4032 203.955 68.36ZM199.251 82.4384V67.7888C199.251 67.6096 199.184 67.4528 199.05 67.3184C198.938 67.184 198.792 67.1168 198.613 67.1168H196.496C196.317 67.1168 196.16 67.184 196.026 67.3184C195.914 67.4528 195.858 67.6096 195.858 67.7888V82.4384C195.858 82.6176 195.914 82.7744 196.026 82.9088C196.16 83.0432 196.317 83.1104 196.496 83.1104H198.613C198.792 83.1104 198.938 83.0432 199.05 82.9088C199.184 82.7744 199.251 82.6176 199.251 82.4384ZM213.443 86H208.739V68.36C208.739 65.4032 210.128 63.9248 212.906 63.9248H215.392C217.027 63.9248 218.192 64.4624 218.886 65.5376C219.536 64.4624 220.701 63.9248 222.381 63.9248H224.867C227.645 63.9248 229.034 65.4032 229.034 68.36V86H224.33V67.9568C224.33 67.7776 224.262 67.6208 224.128 67.4864C224.016 67.352 223.87 67.2848 223.691 67.2848H221.877C221.698 67.2848 221.541 67.352 221.406 67.4864C221.294 67.6208 221.238 67.7776 221.238 67.9568V86H216.534V67.9568C216.534 67.7776 216.467 67.6208 216.333 67.4864C216.221 67.352 216.075 67.2848 215.896 67.2848H214.082C213.902 67.2848 213.746 67.352 213.611 67.4864C213.499 67.6208 213.443 67.7776 213.443 67.9568V86ZM245.673 69.9728H241.204V68.2592C241.204 68.08 241.137 67.9232 241.003 67.7888C240.891 67.6544 240.745 67.5872 240.566 67.5872H238.718C238.539 67.5872 238.382 67.6544 238.247 67.7888C238.135 67.9232 238.079 68.08 238.079 68.2592V72.1232C238.079 72.3024 238.135 72.4592 238.247 72.5936C238.382 72.728 238.539 72.7952 238.718 72.7952H241.742C244.519 72.84 245.908 74.3184 245.908 77.2304V81.9008C245.908 84.8576 244.519 86.336 241.742 86.336H237.777C234.999 86.336 233.611 84.8576 233.611 81.9008V79.6496H238.079V82.0688C238.079 82.248 238.135 82.4048 238.247 82.5392C238.382 82.6736 238.539 82.7408 238.718 82.7408H240.801C240.98 82.7408 241.126 82.6736 241.238 82.5392C241.372 82.4048 241.439 82.248 241.439 82.0688V77.8016C241.439 77.6224 241.372 77.4656 241.238 77.3312C241.126 77.1968 240.98 77.1296 240.801 77.1296H237.777C234.999 77.1296 233.611 75.6512 233.611 72.6944V68.36C233.611 65.4032 234.999 63.9248 237.777 63.9248H241.507C244.284 63.9248 245.673 65.4032 245.673 68.36V69.9728ZM263.884 64.2608L260.188 74.24L264.59 86H259.785L256.56 77.3984H255.048V86H250.344V64.2608H255.048V73.3664H256.19L259.584 64.2608H263.884ZM272.24 82.0352H277.381V86H267.536V64.2608H272.24V82.0352ZM288.717 64.2608H293.421V81.9008C293.421 84.8576 292.032 86.336 289.254 86.336H285.088C282.31 86.336 280.921 84.8576 280.921 81.9008V64.2608H285.625V82.304C285.625 82.4832 285.681 82.64 285.793 82.7744C285.928 82.9088 286.085 82.976 286.264 82.976H288.078C288.257 82.976 288.403 82.9088 288.515 82.7744C288.649 82.64 288.717 82.4832 288.717 82.304V64.2608ZM308.601 74.1056C310.057 74.6208 310.785 75.808 310.785 77.6672V81.5648C310.785 84.5216 309.396 86 306.619 86H297.983V64.2608H306.35C309.127 64.2608 310.516 65.7392 310.516 68.696V70.6784C310.516 72.4704 309.878 73.6128 308.601 74.1056ZM305.174 67.4528H302.687V73.2656H305.174C305.353 73.2656 305.499 73.1984 305.611 73.064C305.745 72.9296 305.812 72.7728 305.812 72.5936V68.1248C305.812 67.9456 305.745 67.7888 305.611 67.6544C305.499 67.52 305.353 67.4528 305.174 67.4528ZM306.081 82.1024V77.2304C306.081 77.0512 306.014 76.8944 305.879 76.76C305.767 76.6256 305.622 76.5584 305.443 76.5584H302.687V82.7744H305.443C305.622 82.7744 305.767 82.7072 305.879 82.5728C306.014 82.4384 306.081 82.2816 306.081 82.1024ZM325.958 74.1056C327.414 74.6208 328.142 75.808 328.142 77.6672V81.5648C328.142 84.5216 326.753 86 323.975 86H315.34V64.2608H323.706C326.484 64.2608 327.873 65.7392 327.873 68.696V70.6784C327.873 72.4704 327.234 73.6128 325.958 74.1056ZM322.53 67.4528H320.044V73.2656H322.53C322.71 73.2656 322.855 73.1984 322.967 73.064C323.102 72.9296 323.169 72.7728 323.169 72.5936V68.1248C323.169 67.9456 323.102 67.7888 322.967 67.6544C322.855 67.52 322.71 67.4528 322.53 67.4528ZM323.438 82.1024V77.2304C323.438 77.0512 323.37 76.8944 323.236 76.76C323.124 76.6256 322.978 76.5584 322.799 76.5584H320.044V82.7744H322.799C322.978 82.7744 323.124 82.7072 323.236 82.5728C323.37 82.4384 323.438 82.2816 323.438 82.1024Z" fill="black"></path></svg> 